<?xml version="1.0" encoding="utf-8"?>
<!-- Generator: Adobe Illustrator 16.0.4, SVG Export Plug-In . SVG Version: 6.00 Build 0)  -->
<!DOCTYPE svg PUBLIC "-//W3C//DTD SVG 1.1//EN" "http://www.w3.org/Graphics/SVG/1.1/DTD/svg11.dtd">
<svg version="1.1"
	 id="Layer_1" inkscape:version="0.91 r13725" sodipodi:docname="sticker.svg" xmlns:dc="http://purl.org/dc/elements/1.1/" xmlns:cc="http://creativecommons.org/ns#" xmlns:rdf="http://www.w3.org/1999/02/22-rdf-syntax-ns#" xmlns:svg="http://www.w3.org/2000/svg" xmlns:sodipodi="http://sodipodi.sourceforge.net/DTD/sodipodi-0.dtd" xmlns:inkscape="http://www.inkscape.org/namespaces/inkscape"
	 xmlns="http://www.w3.org/2000/svg" xmlns:xlink="http://www.w3.org/1999/xlink" x="0px" y="0px" width="153.07px"
	 height="153.07px" viewBox="0 0 153.07 153.07" enable-background="new 0 0 153.07 153.07" xml:space="preserve">
<sodipodi:namedview  units="cm" inkscape:pageopacity="0" inkscape:pageshadow="2" inkscape:window-width="2560" inkscape:window-height="1399" inkscape:current-layer="Layer_1" fit-margin-right="0" fit-margin-bottom="0" inkscape:window-x="0" inkscape:window-y="240" inkscape:window-maximized="1" id="namedview16" bordercolor="#666666" pagecolor="#ffffff" borderopacity="1" objecttolerance="10" gridtolerance="10" guidetolerance="10" showgrid="false" inkscape:zoom="2.8284271" inkscape:cx="17.821163" inkscape:cy="98.674184" fit-margin-top="0" fit-margin-left="0">
	</sodipodi:namedview>
<circle id="circle4144" fill="#0082C9" cx="76.535" cy="76.535" r="76.535"/>
<circle id="path4171" fill="#0082C9" cx="76.535" cy="76.535" r="63.779"/>
<path id="XMLID_107_" inkscape:connector-curvature="0" fill="#FFFFFF" d="M76.605,46.901c-9.444,0-17.449,6.403-19.933,15.077
	c-2.153-4.604-6.826-7.824-12.211-7.824c-7.398,0-13.482,6.084-13.482,13.485c0,7.398,6.084,13.485,13.482,13.485
	c5.385,0,10.058-3.225,12.211-7.827c2.48,8.679,10.485,15.08,19.933,15.08c9.374,0,17.339-6.308,19.883-14.886
	c2.196,4.498,6.811,7.633,12.116,7.633c7.398,0,13.485-6.087,13.485-13.485c0-7.401-6.087-13.485-13.485-13.485
	c-5.309,0-9.92,3.134-12.116,7.63C93.944,53.207,85.979,46.901,76.605,46.901z M76.605,54.818c7.13,0,12.825,5.692,12.825,12.821
	c0,7.13-5.695,12.822-12.825,12.822c-7.129,0-12.821-5.692-12.821-12.822C63.783,60.51,69.476,54.818,76.605,54.818z M44.464,62.07
	c3.124,0,5.572,2.446,5.572,5.569c0,3.124-2.448,5.569-5.572,5.569c-3.123,0-5.566-2.445-5.566-5.569
	C38.895,64.516,41.341,62.07,44.464,62.07z M108.604,62.07c3.124,0,5.569,2.446,5.569,5.569c0,3.124-2.445,5.569-5.569,5.569
	c-3.123,0-5.569-2.445-5.569-5.569C103.034,64.516,105.481,62.07,108.604,62.07z"/>
<g id="g4571" transform="matrix(0.47038519,0,0,0.47038519,50.112482,99.385909)">
	<path id="XMLID_121_" inkscape:connector-curvature="0" fill="#FFFFFF" d="M8.831-3.138c4.719,0,7.36,3.359,7.36,8.402
		c0,0.48-0.401,0.878-0.88,0.878H2.588c0.081,4.48,3.199,7.04,6.799,7.04c2.24,0,3.843-0.961,4.64-1.601
		c0.482-0.32,0.88-0.241,1.121,0.241l0.239,0.399c0.243,0.403,0.162,0.801-0.239,1.121c-0.961,0.72-3.039,1.92-5.84,1.92
		c-5.201,0-9.201-3.762-9.201-9.201C0.188,0.302,4.029-3.138,8.831-3.138L8.831-3.138z M13.71,4.384c-0.16-3.681-2.4-5.52-4.96-5.52
		c-2.963,0-5.52,1.92-6.081,5.52H13.71z"/>
	<path id="XMLID_119_" inkscape:connector-curvature="0" fill="#FFFFFF" d="M40.213-0.576v-1.999v-4.16
		c0-0.561,0.322-0.878,0.878-0.878h0.641c0.554,0,0.799,0.322,0.799,0.878v4.16h3.6c0.556,0,0.876,0.32,0.876,0.878v0.241
		c0,0.561-0.32,0.799-0.876,0.799h-3.6v8.801c0,4.08,2.481,4.559,3.841,4.64c0.716,0.081,0.959,0.241,0.959,0.88v0.48
		c0,0.561-0.243,0.799-0.959,0.799c-3.841,0-6.16-2.319-6.16-6.479V-0.576L40.213-0.576z"/>
	<path id="XMLID_117_" inkscape:connector-curvature="0" fill="#FFFFFF" d="M58.532-3.138c3.039,0,4.96,1.281,5.84,1.999
		c0.399,0.32,0.48,0.72,0.079,1.2l-0.239,0.401c-0.32,0.482-0.72,0.482-1.2,0.162c-0.801-0.563-2.321-1.603-4.401-1.603
		c-3.839,0-6.88,2.882-6.88,7.121c0,4.158,3.044,7.04,6.88,7.04c2.481,0,4.16-1.121,4.96-1.839c0.484-0.322,0.801-0.241,1.121,0.241
		l0.241,0.32c0.241,0.482,0.162,0.801-0.241,1.2c-0.878,0.72-3.037,2.24-6.241,2.24c-5.199,0-9.199-3.76-9.199-9.199
		C49.331,0.703,53.334-3.138,58.532-3.138L58.532-3.138z"/>
	<path id="XMLID_115_" inkscape:connector-curvature="0" fill="#FFFFFF" d="M69.172-8.816c0-0.563-0.32-0.88,0.239-0.88h0.644
		c0.556,0,1.439,0.32,1.439,0.88v19.119c0,2.24,1.04,2.481,1.841,2.562c0.399,0,0.716,0.239,0.716,0.799v0.561
		c0,0.558-0.239,0.88-0.878,0.88c-1.441,0-4.001-0.484-4.001-4.32V-8.816z"/>
	<path id="XMLID_112_" inkscape:connector-curvature="0" fill="#FFFFFF" d="M85.574-3.138c5.12,0,9.28,3.922,9.28,9.12
		c0,5.279-4.16,9.28-9.28,9.28c-5.12,0-9.28-4.001-9.28-9.28C76.291,0.784,80.454-3.138,85.574-3.138z M85.574,13.182
		c3.76,0,6.801-3.042,6.801-7.2c0-4.001-3.044-6.961-6.801-6.961c-3.76,0-6.88,3.039-6.88,6.961
		C78.772,10.064,81.814,13.182,85.574,13.182z"/>
	<path id="XMLID_109_" inkscape:connector-curvature="0" fill="#FFFFFF" d="M125.495-3.138c4.239,0,5.759,3.519,5.759,3.519h0.081
		c0,0-0.081-0.556-0.081-1.36v-7.918c0-0.558-0.239-0.88,0.32-0.88h0.644c0.556,0,1.441,0.322,1.441,0.88v22.802
		c0,0.556-0.241,0.878-0.799,0.878h-0.561c-0.565,0-0.88-0.241-0.88-0.799v-1.36c0-0.639,0.16-1.121,0.16-1.121h-0.079
		c0,0-1.52,3.681-6.081,3.681c-4.719,0-7.684-3.76-7.684-9.199C117.572,0.543,120.855-3.138,125.495-3.138L125.495-3.138z
		 M125.574,13.182c2.961,0,5.68-2.08,5.68-7.121c0-3.6-1.839-7.04-5.599-7.04c-3.12,0-5.68,2.56-5.68,7.04
		C120.051,10.384,122.291,13.182,125.574,13.182z"/>
	<path id="XMLID_103_" sodipodi:nodetypes="ssssssssssscccccsss" inkscape:connector-curvature="0" fill="#FFFFFF" d="
		M-20.509,14.864h0.642c0.558,0,0.878-0.322,0.878-0.88V-3.194c0-2.722,2.963-4.665,6.324-4.665c3.357,0,6.32,1.943,6.32,4.665
		v17.178c0,0.561,0.32,0.88,0.88,0.88h0.637c0.563,0,0.799-0.322,0.799-0.88V-3.298c0-4.561-4.559-6.799-8.72-6.799l0,0l0,0l0,0l0,0
		c-4.005,0-8.564,2.238-8.564,6.799v17.279C-21.308,14.542-21.067,14.864-20.509,14.864z"/>
	<path id="XMLID_102_" inkscape:connector-curvature="0" fill="#FFFFFF" d="M113.011-2.737h-0.637c-0.563,0-0.88,0.322-0.88,0.88
		v9.681c0,2.72-1.758,5.201-5.199,5.201c-3.361,0-5.203-2.481-5.203-5.201v-9.681c0-0.558-0.32-0.88-0.88-0.88h-0.637
		c-0.563,0-0.801,0.322-0.801,0.88V8.461c0,4.561,3.361,6.801,7.524,6.801l0,0l0,0l0,0l0,0c4.156,0,7.522-2.24,7.522-6.801V-1.857
		C113.891-2.415,113.574-2.737,113.011-2.737L113.011-2.737z"/>
	<path id="path4165-9" inkscape:connector-curvature="0" fill="#FFFFFF" d="M33.821-2.868c-0.195,0.029-0.384,0.162-0.565,0.378
		l-3.239,3.857l-2.423,2.886l-3.671-4.37L21.935-2.49c-0.181-0.216-0.384-0.332-0.596-0.351c-0.212-0.021-0.432,0.06-0.646,0.243
		l-0.49,0.411C19.774-1.83,19.797-1.429,20.156-1l3.239,3.859l2.686,3.195l-3.932,4.69c-0.004,0.002-0.006,0.002-0.008,0.004
		l-1.985,2.371c-0.359,0.43-0.322,0.874,0.11,1.242l0.49,0.409c0.43,0.359,0.818,0.27,1.177-0.16l3.239-3.859l2.423-2.888
		l3.668,4.374c0.002,0.002,0.004,0.004,0.006,0.008l1.987,2.365c0.357,0.43,0.81,0.467,1.237,0.108l0.49-0.411
		c0.43-0.359,0.407-0.758,0.048-1.188l-3.237-3.859l-2.686-3.201l3.932-4.686c0.004-0.004,0.004-0.008,0.008-0.012l1.985-2.363
		c0.359-0.43,0.322-0.882-0.11-1.239l-0.49-0.411C34.217-2.835,34.016-2.899,33.821-2.868L33.821-2.868z"/>
</g>
</svg>
