<?xml version="1.0" encoding="UTF-8" standalone="no"?>
<svg
   width="443.29822"
   height="255.51338"
   viewBox="0 0 117.28932 67.604587"
   version="1.1"
   id="svg8"
   inkscape:version="1.1.1 (3bf5ae0d25, 2021-09-20)"
   sodipodi:docname="Nextcloud-Office-logo-inverted.svg"
   inkscape:export-filename="Nextcloud-Office-logo-inverted.png"
   inkscape:export-xdpi="153.77882"
   inkscape:export-ydpi="153.77882"
   xmlns:inkscape="http://www.inkscape.org/namespaces/inkscape"
   xmlns:sodipodi="http://sodipodi.sourceforge.net/DTD/sodipodi-0.dtd"
   xmlns="http://www.w3.org/2000/svg"
   xmlns:svg="http://www.w3.org/2000/svg"
   xmlns:rdf="http://www.w3.org/1999/02/22-rdf-syntax-ns#"
   xmlns:cc="http://creativecommons.org/ns#"
   xmlns:dc="http://purl.org/dc/elements/1.1/">
  <defs
     id="defs2">
    <mask
       maskUnits="userSpaceOnUse"
       id="mask2394">
      <rect
         style="opacity:1;fill:#f2faff;fill-opacity:1;stroke:none;stroke-width:0.79375;stroke-linecap:butt;stroke-linejoin:round;stroke-miterlimit:4;stroke-dasharray:none;stroke-dashoffset:10;stroke-opacity:1;paint-order:stroke fill markers"
         id="rect2396"
         width="168.82777"
         height="125.88467"
         x="167.72221"
         y="65.811188" />
    </mask>
    <mask
       maskUnits="userSpaceOnUse"
       id="mask3871">
      <path
         inkscape:connector-curvature="0"
         id="path3873"
         d="M 189.44167,68.929153 V 130.31249 H 169.8625 v 42.84389 h 168.38816 v -42.84389 h -19.6329 V 68.929153 Z"
         style="opacity:1;fill:#ffffff;fill-opacity:1;stroke:none;stroke-width:0.79375;stroke-linecap:butt;stroke-linejoin:round;stroke-miterlimit:4;stroke-dasharray:none;stroke-dashoffset:10;stroke-opacity:1;paint-order:stroke fill markers"
         sodipodi:nodetypes="ccccccccc" />
    </mask>
  </defs>
  <sodipodi:namedview
     id="base"
     pagecolor="#ffffff"
     bordercolor="#666666"
     borderopacity="0.45098039"
     inkscape:pageopacity="0"
     inkscape:pageshadow="2"
     inkscape:zoom="1.3916496"
     inkscape:cx="495.45518"
     inkscape:cy="52.096447"
     inkscape:document-units="px"
     inkscape:current-layer="g1385"
     showgrid="false"
     units="px"
     inkscape:showpageshadow="false"
     inkscape:window-width="3840"
     inkscape:window-height="2053"
     inkscape:window-x="1440"
     inkscape:window-y="0"
     inkscape:window-maximized="1"
     inkscape:measure-start="0,0"
     inkscape:measure-end="0,0"
     inkscape:pagecheckerboard="false"
     inkscape:document-rotation="0"
     fit-margin-top="0"
     fit-margin-left="0"
     fit-margin-right="0"
     fit-margin-bottom="0" />
  <metadata
     id="metadata5">
    <rdf:RDF>
      <cc:Work
         rdf:about="">
        <dc:format>image/svg+xml</dc:format>
        <dc:type
           rdf:resource="http://purl.org/dc/dcmitype/StillImage" />
      </cc:Work>
    </rdf:RDF>
  </metadata>
  <g
     inkscape:label="Layer 1"
     inkscape:groupmode="layer"
     id="layer1"
     transform="translate(-195.35536,-101.98904)">
    <g
       id="g2156"
       transform="translate(-88.63072,27.508054)"
       style="fill:#0082c9">
      <path
         inkscape:export-ydpi="300"
         inkscape:export-xdpi="300"
         inkscape:export-filename="Nextcloud Hub logo variants.png"
         style="color:#000000;font-style:normal;font-variant:normal;font-weight:normal;font-stretch:normal;font-size:medium;line-height:normal;font-family:sans-serif;text-indent:0;text-align:start;text-decoration:none;text-decoration-line:none;text-decoration-style:solid;text-decoration-color:#000000;letter-spacing:normal;word-spacing:normal;text-transform:none;writing-mode:lr-tb;direction:ltr;baseline-shift:baseline;text-anchor:start;white-space:normal;clip-rule:nonzero;display:inline;overflow:visible;visibility:visible;opacity:1;isolation:auto;mix-blend-mode:normal;color-interpolation:sRGB;color-interpolation-filters:linearRGB;solid-color:#000000;solid-opacity:1;fill:#0082c9;fill-opacity:1;fill-rule:nonzero;stroke:none;stroke-width:1.57082;stroke-linecap:butt;stroke-linejoin:miter;stroke-miterlimit:10;stroke-dasharray:none;stroke-dashoffset:0;stroke-opacity:1;color-rendering:auto;image-rendering:auto;shape-rendering:auto;text-rendering:auto;enable-background:accumulate"
         d="m 342.71138,74.480986 c -10.96992,0 -20.26786,7.436873 -23.14961,17.513022 -2.5045,-5.344537 -7.93191,-9.088838 -14.18335,-9.088838 -8.59719,0 -15.6643,7.067121 -15.6643,15.664299 0,8.597181 7.06711,15.667521 15.6643,15.667521 6.25144,0 11.67885,-3.7466 14.18335,-9.09205 2.88175,10.0769 12.17969,17.51624 23.14961,17.51624 10.88882,0 20.13935,-7.32717 23.09478,-17.29041 2.5508,5.22412 7.91104,8.86622 14.07368,8.86622 8.59718,0 15.66753,-7.07034 15.66753,-15.667521 0,-8.597178 -7.07035,-15.664299 -15.66753,-15.664299 -6.16264,0 -11.52288,3.639797 -14.07368,8.862998 -2.95543,-9.96249 -12.20596,-17.287182 -23.09478,-17.287182 z m 0,9.195312 c 8.28105,0 14.89643,6.612143 14.89643,14.893171 0,8.281021 -6.61538,14.896391 -14.89643,14.896391 -8.28099,0 -14.89318,-6.61537 -14.89318,-14.896391 0,-8.281028 6.61219,-14.893171 14.89318,-14.893171 z m -37.33296,8.424192 c 3.6281,0 6.47221,2.840879 6.47221,6.468979 0,3.628111 -2.84411,6.472211 -6.47221,6.472211 -3.62811,0 -6.46899,-2.8441 -6.46899,-6.472211 0,-3.6281 2.84088,-6.468979 6.46899,-6.468979 z m 74.50142,0 c 3.6281,0 6.47221,2.840879 6.47221,6.468979 0,3.628111 -2.84411,6.472211 -6.47221,6.472211 -3.62811,0 -6.46899,-2.8441 -6.46899,-6.472211 0,-3.6281 2.84088,-6.468979 6.46899,-6.468979 z"
         id="path1052-3"
         inkscape:connector-curvature="0" />
      <g
         style="fill:#0082c9;stroke-width:0.303712"
         inkscape:export-ydpi="300"
         inkscape:export-xdpi="300"
         inkscape:export-filename="Nextcloud Hub logo variants.png"
         transform="matrix(0.92924198,0,0,0.92924198,-76.150083,22.408384)"
         id="g1385">
        <g
           id="g11747"
           transform="translate(-6.1641125)">
          <text
             xml:space="preserve"
             style="font-size:16.2191px;line-height:1.25;font-family:MuseoSansW01-Rounded100;-inkscape-font-specification:MuseoSansW01-Rounded100;letter-spacing:0px;word-spacing:0px;stroke-width:0.123148"
             x="483.80484"
             y="126.77537"
             id="text4174"
             transform="scale(0.9874985,1.0126598)"><tspan
               sodipodi:role="line"
               id="tspan4172"
               style="stroke-width:0.123148"
               x="483.80484"
               y="126.77537">Office</tspan></text>
          <path
             style="fill:#0082c9;fill-opacity:1;stroke-width:0.142862"
             inkscape:connector-curvature="0"
             d="m 408.96979,119.44084 c 2.38791,0 3.72351,1.69985 3.72351,4.24965 0,0.24283 -0.20236,0.44519 -0.44521,0.44519 h -6.43518 c 0.0404,2.26649 1.61892,3.56162 3.44019,3.56162 1.13324,0 1.9427,-0.48568 2.34743,-0.80946 0.24284,-0.16189 0.4452,-0.12142 0.56662,0.12142 l 0.12142,0.20236 c 0.12142,0.20237 0.081,0.40474 -0.12142,0.56662 -0.48568,0.36426 -1.53797,0.97136 -2.95451,0.97136 -2.63074,0 -4.65438,-1.90224 -4.65438,-4.65438 0.0404,-2.91405 1.98316,-4.65438 4.41153,-4.65438 z m 2.46885,3.80445 c -0.081,-1.86176 -1.21418,-2.79263 -2.50931,-2.79263 -1.4975,0 -2.79263,0.97134 -3.07594,2.79263 z"
             id="path1174-6" />
          <path
             style="fill:#0082c9;fill-opacity:1;stroke-width:0.142862"
             inkscape:connector-curvature="0"
             d="m 424.64577,120.73597 v -1.01182 -2.10459 c 0,-0.28331 0.16188,-0.4452 0.44519,-0.4452 h 0.32379 c 0.28331,0 0.40473,0.16189 0.40473,0.4452 v 2.10459 h 1.82128 c 0.28331,0 0.4452,0.16189 0.4452,0.4452 v 0.12141 c 0,0.28331 -0.16189,0.40473 -0.4452,0.40473 h -1.82128 v 4.45202 c 0,2.06411 1.25466,2.30695 1.9427,2.34742 0.36425,0.0404 0.48567,0.12143 0.48567,0.4452 v 0.24285 c 0,0.28331 -0.12142,0.40472 -0.48567,0.40472 -1.9427,0 -3.11641,-1.17371 -3.11641,-3.2783 z"
             id="path1176-7" />
          <path
             style="fill:#0082c9;fill-opacity:1;stroke-width:0.142862"
             inkscape:connector-curvature="0"
             d="m 434.11571,119.44084 c 1.53798,0 2.50932,0.64756 2.95452,1.01182 0.20237,0.16189 0.24284,0.36426 0.0404,0.60709 l -0.12141,0.20237 c -0.1619,0.24283 -0.36426,0.24283 -0.6071,0.081 -0.40472,-0.28331 -1.17371,-0.80946 -2.22601,-0.80946 -1.94269,0 -3.48066,1.45702 -3.48066,3.60208 0,2.1046 1.53797,3.56161 3.48066,3.56161 1.25467,0 2.10459,-0.56662 2.50932,-0.93087 0.24284,-0.16189 0.40474,-0.12142 0.56662,0.12142 l 0.12142,0.16189 c 0.12142,0.24284 0.081,0.40473 -0.12142,0.6071 -0.44519,0.36425 -1.53796,1.13323 -3.15688,1.13323 -2.63074,0 -4.65437,-1.90222 -4.65437,-4.65438 0.0404,-2.75215 2.06411,-4.69484 4.69484,-4.69484 z"
             id="path1178-5" />
          <path
             style="fill:#0082c9;fill-opacity:1;stroke-width:0.142862"
             inkscape:connector-curvature="0"
             d="m 439.4986,116.56726 c 0,-0.28331 -0.16189,-0.4452 0.12142,-0.4452 h 0.32379 c 0.28331,0 0.72851,0.16189 0.72851,0.4452 v 9.67302 c 0,1.13324 0.52614,1.25465 0.93088,1.29513 0.20236,0 0.36425,0.12142 0.36425,0.40472 v 0.28331 c 0,0.28331 -0.12142,0.44521 -0.4452,0.44521 -0.72851,0 -2.02365,-0.24284 -2.02365,-2.18554 z"
             id="path1180" />
          <path
             style="fill:#0082c9;fill-opacity:1;stroke-width:0.142862"
             inkscape:connector-curvature="0"
             d="m 447.79554,119.44084 c 2.59027,0 4.69485,1.98316 4.69485,4.6139 0,2.67121 -2.10458,4.69486 -4.69485,4.69486 -2.59026,0 -4.69485,-2.02365 -4.69485,-4.69486 0,-2.63074 2.10459,-4.6139 4.69485,-4.6139 z m 0,8.25646 c 1.90223,0 3.44019,-1.53797 3.44019,-3.64256 0,-2.02364 -1.53796,-3.52113 -3.44019,-3.52113 -1.90222,0 -3.48066,1.53796 -3.48066,3.52113 0.0404,2.06412 1.57844,3.64256 3.48066,3.64256 z"
             id="path1182-3" />
          <path
             style="fill:#0082c9;fill-opacity:1;stroke-width:0.142862"
             inkscape:connector-curvature="0"
             d="m 467.9915,119.44084 c 2.14506,0 2.91405,1.7808 2.91405,1.7808 h 0.0404 c 0,0 -0.0404,-0.28331 -0.0404,-0.68803 v -4.00682 c 0,-0.28331 -0.12142,-0.4452 0.16189,-0.4452 h 0.32378 c 0.28331,0 0.72851,0.16189 0.72851,0.4452 v 11.53476 c 0,0.28331 -0.12142,0.4452 -0.40473,0.4452 h -0.28331 c -0.28331,0 -0.4452,-0.12141 -0.4452,-0.40472 v -0.68804 c 0,-0.32378 0.081,-0.56663 0.081,-0.56663 h -0.0404 c 0,0 -0.76899,1.86176 -3.07594,1.86176 -2.3879,0 -3.88539,-1.90222 -3.88539,-4.65438 -0.081,-2.75215 1.57844,-4.6139 3.92586,-4.6139 z m 0.0404,8.25646 c 1.4975,0 2.87357,-1.0523 2.87357,-3.60208 0,-1.82129 -0.93088,-3.56161 -2.8331,-3.56161 -1.57844,0 -2.87358,1.29513 -2.87358,3.56161 0.0404,2.18553 1.17372,3.60208 2.83311,3.60208 z"
             id="path1184" />
          <path
             id="path1186-5"
             d="m 461.67773,119.6432 h -0.32378 c -0.28331,0 -0.4452,0.16189 -0.4452,0.4452 v 4.89721 c 0,1.37608 -0.89041,2.63075 -2.63074,2.63075 -1.69986,0 -2.63074,-1.25467 -2.63074,-2.63075 v -4.89721 c 0,-0.28331 -0.16188,-0.4452 -0.4452,-0.4452 h -0.32378 c -0.28331,0 -0.40472,0.16189 -0.40472,0.4452 v 5.221 c 0,2.30696 1.69985,3.4402 3.80444,3.4402 v 0 c 0,0 0,0 0,0 0,0 0,0 0,0 v 0 c 2.10459,0 3.80445,-1.13324 3.80445,-3.4402 v -5.221 c 0.0404,-0.28331 -0.12142,-0.4452 -0.40473,-0.4452 z"
             inkscape:connector-curvature="0"
             style="fill:#0082c9;fill-opacity:1;stroke-width:0.142862" />
          <path
             style="fill:#0082c9;fill-opacity:1;stroke-width:0.142862"
             d="m 421.61292,119.5768 c -0.0991,0.0158 -0.19431,0.082 -0.28536,0.19051 l -1.63789,1.9525 -1.22604,1.46082 -1.85606,-2.21257 -1.00708,-1.20075 c -0.0911,-0.10852 -0.19417,-0.16785 -0.30118,-0.17708 -0.107,-0.009 -0.21795,0.0315 -0.32647,0.12254 l -0.24821,0.20789 c -0.21702,0.18211 -0.20582,0.38374 -0.0238,0.60077 l 1.63868,1.9525 1.35884,1.61891 -1.98965,2.37067 c -0.002,0.002 -0.003,0.003 -0.004,0.005 l -1.00391,1.19601 c -0.18211,0.21702 -0.16171,0.44553 0.0553,0.62764 l 0.2482,0.20711 c 0.21703,0.18211 0.41392,0.13639 0.59603,-0.0806 l 1.63789,-1.9525 1.22604,-1.46082 1.85606,2.21257 c 8.6e-4,0.002 0.003,0.003 0.004,0.004 l 1.00392,1.1968 c 0.18211,0.21703 0.40982,0.23666 0.62686,0.0546 l 0.2482,-0.2079 c 0.21703,-0.18211 0.20583,-0.38374 0.0237,-0.60076 l -1.63867,-1.95251 -1.35885,-1.61891 1.98966,-2.37067 c 0.002,-0.002 0.003,-0.003 0.004,-0.005 l 1.00391,-1.19601 c 0.18211,-0.21702 0.16171,-0.44553 -0.0553,-0.62764 l -0.24821,-0.20789 c -0.10851,-0.0911 -0.21153,-0.12492 -0.31065,-0.1091 z"
             id="path1188-6"
             inkscape:connector-curvature="0" />
          <path
             inkscape:connector-curvature="0"
             id="path1190-2"
             d="m 394.12809,115.91914 c -0.2833,0 -0.4049,0.16254 -0.4049,0.44587 v 11.73729 c 0,0.28331 0.1216,0.44428 0.4049,0.44428 h 0.32455 c 0.28331,0 0.44429,-0.16097 0.44429,-0.44428 v -9.74747 l 6.40745,9.94441 c 0.0279,0.0434 0.0578,0.0737 0.0882,0.10555 0.009,0.0106 0.0166,0.022 0.0268,0.0315 0.0273,0.0248 0.0573,0.0383 0.0867,0.0536 0.0164,0.009 0.029,0.0205 0.0472,0.0268 0.0127,0.004 0.0262,0.003 0.0394,0.006 0.0452,0.0116 0.0906,0.0237 0.14495,0.0237 h 0.32298 c 0.28331,0 0.40488,-0.16097 0.40488,-0.44428 v -11.73704 c 0,-0.28333 -0.12157,-0.44587 -0.40488,-0.44587 h -0.32298 c -0.28332,0 -0.44586,0.16254 -0.44586,0.44587 v 9.74746 l -6.40746,-9.94439 c -0.0219,-0.0339 -0.0479,-0.0557 -0.0725,-0.0819 -0.074,-0.10465 -0.192,-0.167 -0.35921,-0.167 z"
             style="fill:#0082c9;fill-opacity:1;stroke-width:0.142862" />
        </g>
      </g>
    </g>
  </g>
</svg>
