<?xml version="1.0" encoding="UTF-8" standalone="no"?>
<svg
   xmlns:dc="http://purl.org/dc/elements/1.1/"
   xmlns:cc="http://creativecommons.org/ns#"
   xmlns:rdf="http://www.w3.org/1999/02/22-rdf-syntax-ns#"
   xmlns:svg="http://www.w3.org/2000/svg"
   xmlns="http://www.w3.org/2000/svg"
   xmlns:sodipodi="http://sodipodi.sourceforge.net/DTD/sodipodi-0.dtd"
   xmlns:inkscape="http://www.inkscape.org/namespaces/inkscape"
   height="150"
   width="150"
   viewBox="0 0 150 150"
   version="1.1"
   id="svg6"
   sodipodi:docname="Nextcloud Pi source.svg"
   inkscape:version="0.92.1 r15371"
   inkscape:export-filename="Nextcloud Pi.png"
   inkscape:export-xdpi="320"
   inkscape:export-ydpi="320">
  <metadata
     id="metadata12">
    <rdf:RDF>
      <cc:Work
         rdf:about="">
        <dc:format>image/svg+xml</dc:format>
        <dc:type
           rdf:resource="http://purl.org/dc/dcmitype/StillImage" />
        <dc:title></dc:title>
      </cc:Work>
    </rdf:RDF>
  </metadata>
  <defs
     id="defs10" />
  <sodipodi:namedview
     pagecolor="#ffffff"
     bordercolor="#666666"
     borderopacity="1"
     objecttolerance="10"
     gridtolerance="10"
     guidetolerance="10"
     inkscape:pageopacity="0"
     inkscape:pageshadow="2"
     inkscape:window-width="1920"
     inkscape:window-height="1046"
     id="namedview8"
     showgrid="false"
     inkscape:zoom="2.6074563"
     inkscape:cx="135.90374"
     inkscape:cy="88.676289"
     inkscape:window-x="0"
     inkscape:window-y="34"
     inkscape:window-maximized="1"
     inkscape:current-layer="svg6"
     fit-margin-top="0"
     fit-margin-left="0"
     fit-margin-right="0"
     fit-margin-bottom="0" />
  <rect
     id="rect4527"
     width="150"
     height="150"
     ry="100"
     rx="100"
     x="0"
     y="0"
     style="fill:#0082c9" />
  <path
     style="color:#000000;text-indent:0;text-decoration:none;text-decoration-line:none;text-decoration-style:solid;text-decoration-color:#000000;text-transform:none;white-space:normal;isolation:auto;mix-blend-mode:normal;fill:#ffffff"
     d="m 51.785156,27.371094 c -0.64524,0.02045 -1.338933,0.259083 -2.126953,0.880859 -1.93234,-0.745157 -3.807002,-1.003334 -5.482422,0.513672 -2.58716,-0.335582 -3.427473,0.355618 -4.064453,1.164063 -0.56793,-0.01178 -4.24907,-0.583103 -5.9375,1.935546 -4.24313,-0.502088 -5.583933,2.49545 -4.064453,5.291016 -0.8666,1.341578 -1.764881,2.667062 0.261719,5.224609 -0.71691,1.424457 -0.272755,2.96977 1.416015,4.839844 -0.44569,2.002466 0.430583,3.414563 2.001953,4.515625 -0.29388,2.740254 2.513493,4.334595 3.351563,4.902344 0.32183,1.596673 0.991306,3.10248 4.197266,3.935547 0.52871,2.379478 2.456475,2.791603 4.322265,3.291015 0.538094,1.513717 3.316408,2.578579 8.81836,1.978516 -3.06623,3.227241 -5.368564,7.194266 -6.595704,11.601562 -2.8,-6.159999 -8.961093,-10.523437 -16.121093,-10.523437 C 22.016719,66.923875 14,74.936594 14,84.683594 c -0.002,9.749996 8.012766,17.763626 17.759766,17.765626 7.162,-0.002 13.321093,-4.3693 16.121093,-10.5293 3.206,11.518 13.706938,20.08008 26.210938,20.08008 12.434,0.002 22.879343,-8.46772 26.152343,-19.88672 2.845,6.046 8.91324,10.33494 15.99024,10.33594 9.75,0 17.76857,-8.01658 17.76757,-17.767579 0,-9.75 -8.01662,-17.763719 -17.76562,-17.761719 -7.078,0.002 -13.15014,4.289937 -15.99414,10.335937 -1.24732,-4.350739 -3.54005,-8.267974 -6.58203,-11.457031 5.69814,0.388362 9.68993,-0.498005 10.11523,-1.935547 1.86579,-0.499305 3.7936,-0.91143 4.32227,-3.291015 3.20594,-0.83321 3.87556,-2.338999 4.19726,-3.935547 0.83821,-0.567624 3.64542,-2.160137 3.35156,-4.900391 1.57133,-1.101169 2.44766,-2.515291 2.00196,-4.517578 1.68877,-1.870075 2.13301,-3.415298 1.41601,-4.839844 2.02691,-2.556476 1.12708,-3.881077 0.26172,-5.222656 1.5184,-2.795565 0.17834,-5.793105 -4.0664,-5.291016 -1.6879,-2.518649 -5.36832,-1.947322 -5.9375,-1.935546 -0.63697,-0.808445 -1.4773,-1.501598 -4.06446,-1.166016 -1.67541,-1.517007 -3.54813,-1.256894 -5.48047,-0.511719 -2.29455,-1.810659 -3.81453,-0.359329 -5.54882,0.189453 -2.77808,-0.907773 -3.41239,0.335462 -4.777348,0.841797 -3.02966,-0.640207 -3.949964,0.753495 -5.402344,2.224609 l -1.689453,-0.0332 c -4.56965,2.692971 -6.839831,8.175202 -7.644531,10.994141 -0.80507,-2.819474 -3.069912,-8.301706 -7.638672,-10.994141 l -1.689453,0.0332 c -1.45417,-1.471114 -2.374637,-2.864798 -5.404297,-2.224609 -1.36495,-0.506335 -1.999437,-1.74957 -4.779297,-0.841797 -1.13769,-0.359958 -2.184136,-1.107704 -3.416016,-1.070312 z m 45.976564,3.234375 c -0.63445,0.784482 -1.52223,1.549982 -0.58203,2.451172 1.2959,-0.821523 2.60007,-1.640696 5.67773,-2.22461 -0.69356,0.784946 -2.12717,1.568571 -1.25781,2.353516 1.62706,-0.630911 3.4278,-1.087556 5.41992,-1.353516 -0.95394,0.79649 -1.7506,1.576419 -0.96875,2.19336 1.74125,-0.543794 4.14023,-1.27761 6.48438,-0.646485 l -1.48438,1.517578 c -0.16468,0.202856 3.47128,0.15772 5.8711,0.19336 -0.8758,1.235059 -1.76766,2.427531 -2.28907,4.548828 0.23784,0.244639 1.42559,0.108729 2.54688,0 -1.14977,2.457343 -3.14521,3.077358 -3.61133,4.128906 0.70246,0.539898 1.67706,0.39836 2.74219,0.03125 -0.82771,1.731258 -2.56386,2.91731 -3.93555,4.322266 0.34686,0.249864 0.95218,0.399728 2.38672,0.226562 -1.26736,1.367451 -2.79869,2.617985 -4.61328,3.742188 0.32135,0.376963 1.42608,0.361629 2.45117,0.386718 -1.64366,1.633127 -3.75953,2.480384 -5.74219,3.548829 0.98826,0.685421 1.69441,0.524925 2.45117,0.515625 -1.40225,1.169505 -3.78646,1.7784 -6,2.484375 0.42097,0.664169 0.8422,0.844795 1.74219,1.03125 -2.3429,1.316242 -5.69808,0.714091 -6.64453,1.386718 0.22849,0.661583 0.87223,1.093652 1.64453,1.453125 C 96.27887,63.118802 85.963638,62.75732 83.986328,54.832031 87.847018,50.52533 94.89395,45.470682 107.01367,39.220703 97.58375,42.425174 89.074195,46.694914 81.953125,52.572266 73.579725,48.614439 79.35246,38.633102 83.4375,34.669922 c 0.20714,1.046517 0.442998,1.709207 0.710938,1.904297 1.33016,-1.447385 2.416636,-2.931343 4.128906,-4.324219 0.006,0.81808 -0.408082,1.706376 0.611328,2.355469 0.918,-1.253794 2.159028,-2.372562 3.806638,-3.322266 -0.79358,1.389326 -0.13563,1.810924 0.29102,2.386719 1.25843,-1.095352 2.45479,-2.204979 4.77539,-3.064453 z m -45.812501,0.002 c 2.3206,0.859474 3.51696,1.969101 4.77539,3.064453 0.42665,-0.575796 1.082643,-0.999347 0.289063,-2.388672 1.64761,0.949703 2.888641,2.068472 3.80664,3.322266 1.01941,-0.649093 0.607712,-1.535437 0.613282,-2.353516 1.71227,1.392876 2.798746,2.874881 4.128906,4.322266 0.26794,-0.19509 0.501844,-0.85778 0.708984,-1.904297 4.08504,3.963179 9.857775,13.94647 1.484375,17.904297 -7.12185,-5.873656 -15.626271,-10.143629 -25.050781,-13.347657 12.11367,6.246548 19.158178,11.301104 23.017578,15.605469 -0.68515,2.746161 -2.380974,4.568827 -4.449218,5.789063 -0.197524,0.107172 -0.387468,0.225978 -0.582032,0.33789 -3.825565,1.98469 -8.690489,2.075581 -11.033203,1.9375 0.7723,-0.359473 1.416041,-0.791542 1.644531,-1.453125 -0.94646,-0.672627 -4.301631,-0.07048 -6.644531,-1.386718 0.9,-0.186455 1.321208,-0.367081 1.742188,-1.03125 -2.21354,-0.705975 -4.59776,-1.31487 -6,-2.484375 0.75675,0.0093 1.462911,0.169796 2.451171,-0.515625 -1.98266,-1.068445 -4.098557,-1.915703 -5.742187,-3.548829 1.02509,-0.02509 2.129832,-0.0098 2.451172,-0.386718 -1.81458,-1.124203 -3.345931,-2.374737 -4.613281,-3.742188 1.43454,0.173166 2.041812,0.0233 2.388672,-0.226562 -1.3717,-1.404956 -3.107837,-2.591008 -3.935547,-4.322266 1.06512,0.36711 2.039727,0.508648 2.742187,-0.03125 -0.46611,-1.051548 -2.463511,-1.671563 -3.613281,-4.128906 1.1213,0.108729 2.310998,0.244639 2.548828,0 -0.52046,-2.120404 -1.415136,-3.313769 -2.291016,-4.548828 2.39981,-0.03568 6.035774,0.0095 5.871094,-0.19336 l -1.482422,-1.515625 c 2.34415,-0.631126 4.743125,0.100739 6.484375,0.644532 0.78184,-0.61694 -0.0148,-1.39687 -0.96875,-2.19336 1.99212,0.265961 3.792862,0.724558 5.419922,1.355469 0.86936,-0.784946 -0.564252,-1.570524 -1.257812,-2.355469 3.07766,0.583914 4.379881,1.40504 5.675781,2.226563 0.94019,-0.90119 0.0544,-1.66669 -0.580078,-2.451172 z m 22.140625,37.1875 h 0.002 a 16.81,16.81 0 0 1 16.888673,16.888672 c 0,9.389996 -7.500626,16.890679 -16.890626,16.888679 A 16.81,16.81 0 0 1 57.203125,84.683594 c 0,-9.389342 7.500641,-16.886622 16.886719,-16.888672 z m -42.330078,9.552734 h 0.002 c 4.113054,0.001 7.332984,3.221644 7.333984,7.333985 0,4.114 -3.218984,7.339839 -7.333984,7.339839 -4.113,0 -7.334985,-3.225839 -7.333985,-7.339839 0,-4.112341 3.219977,-7.332952 7.332032,-7.333985 z m 84.474614,0 c 4.11399,0 7.33789,3.218985 7.33789,7.333985 0,4.115 -3.2229,7.339839 -7.33789,7.339839 -4.11401,0 -7.33499,-3.225839 -7.33399,-7.339839 0,-4.113 3.22098,-7.333985 7.33399,-7.333985 z"
     id="path4529"
     inkscape:connector-curvature="0" />
</svg>
