<?xml version="1.0" encoding="UTF-8" standalone="no"?>
<!--
  Nextcloud Android client application

  Copyright (C) 2017 Andy Scherzinger
  Copyright (C) 2017 Nextcloud.

  This program is free software; you can redistribute it and/or
  modify it under the terms of the GNU AFFERO GENERAL PUBLIC LICENSE
  License as published by the Free Software Foundation; either
  version 3 of the License, or any later version.

  This program is distributed in the hope that it will be useful,
  but WITHOUT ANY WARRANTY; without even the implied warranty of
  MERCHANTABILITY or FITNESS FOR A PARTICULAR PURPOSE. See the
  GNU AFFERO GENERAL PUBLIC LICENSE for more details.

  You should have received a copy of the GNU Affero General Public
  License along with this program. If not, see <http://www.gnu.org/licenses/>.
  -->

<svg
   xmlns:dc="http://purl.org/dc/elements/1.1/"
   xmlns:cc="http://creativecommons.org/ns#"
   xmlns:rdf="http://www.w3.org/1999/02/22-rdf-syntax-ns#"
   xmlns:svg="http://www.w3.org/2000/svg"
   xmlns="http://www.w3.org/2000/svg"
   xmlns:sodipodi="http://sodipodi.sourceforge.net/DTD/sodipodi-0.dtd"
   xmlns:inkscape="http://www.inkscape.org/namespaces/inkscape"
   width="1344"
   height="1344"
   viewBox="0 0 1344 1344"
   version="1.1"
   id="svg4"
   sodipodi:docname="ic_launcher_foreground.svg"
   inkscape:version="0.92.2 2405546, 2018-03-11">
  <metadata
     id="metadata10">
    <rdf:RDF>
      <cc:Work
         rdf:about="">
        <dc:format>image/svg+xml</dc:format>
        <dc:type
           rdf:resource="http://purl.org/dc/dcmitype/StillImage" />
        <dc:title></dc:title>
      </cc:Work>
    </rdf:RDF>
  </metadata>
  <defs
     id="defs8" />
  <sodipodi:namedview
     pagecolor="#ffffff"
     bordercolor="#666666"
     borderopacity="1"
     objecttolerance="10"
     gridtolerance="10"
     guidetolerance="10"
     inkscape:pageopacity="0"
     inkscape:pageshadow="2"
     inkscape:window-width="1600"
     inkscape:window-height="835"
     id="namedview6"
     showgrid="false"
     inkscape:pagecheckerboard="true"
     inkscape:zoom="0.14425428"
     inkscape:cx="-63.558581"
     inkscape:cy="818.00001"
     inkscape:window-x="0"
     inkscape:window-y="0"
     inkscape:window-maximized="1"
     inkscape:current-layer="svg4" />
  <path
     d="m 672.69996,468 c -93.4,0 -171.8,63.9 -195.7,149.9 -20.9,-46 -66.9,-78.6 -120.4,-78.6 -72.8,0 -132.6,59.9 -132.6,132.7 0,72.8 59.8,132.6 132.6,132.7 53.5,0 99.4,-32.6 120.4,-78.6 23.9,86 102.4,149.9 195.7,149.9 92.8,0 170.8,-63.2 195.29996,-148.5 21.2,45.1 66.5,77.2 119.4,77.2 72.79998,0 132.69998,-59.8 132.59998,-132.7 0,-72.8 -59.9,-132.6 -132.59998,-132.6 -52.8,0 -98.2,32 -119.4,77.2 C 843.59996,531.3 765.59996,468.1 672.69996,468.1 Z m 0,77.9 c 70.1,0 126.1,56 126.1,126.1 0,70.1 -56,126.1 -126.1,126.1 -70.1,0 -126.1,-56 -126.1,-126.1 0,-70.1 56,-126.1 126.1,-126.1 z m -316.1,71.3 c 30.7,0 54.8,24.1 54.8,54.8 0,30.7 -24,54.8 -54.8,54.8 -30.7,0 -54.8,-24.1 -54.8,-54.8 0,-30.7 24.1,-54.8 54.8,-54.8 z m 630.79996,0 c 30.69998,0 54.79998,24.1 54.79998,54.8 0,30.7 -24.1,54.8 -54.79998,54.8 -30.7,0 -54.8,-24.1 -54.8,-54.8 0,-30.7 24.1,-54.8 54.8,-54.8 z"
     id="path2"
     inkscape:connector-curvature="0"
     style="fill:#ffffff" />
</svg>
