<?xml version="1.0" encoding="UTF-8" standalone="no"?>
<!-- Generator: Adobe Illustrator 16.0.4, SVG Export Plug-In . SVG Version: 6.00 Build 0)  -->

<svg
   xmlns:dc="http://purl.org/dc/elements/1.1/"
   xmlns:cc="http://creativecommons.org/ns#"
   xmlns:rdf="http://www.w3.org/1999/02/22-rdf-syntax-ns#"
   xmlns:svg="http://www.w3.org/2000/svg"
   xmlns="http://www.w3.org/2000/svg"
   xmlns:xlink="http://www.w3.org/1999/xlink"
   xmlns:sodipodi="http://sodipodi.sourceforge.net/DTD/sodipodi-0.dtd"
   xmlns:inkscape="http://www.inkscape.org/namespaces/inkscape"
   version="1.1"
   id="Layer_1"
   inkscape:version="0.92.3 (2405546, 2018-03-11)"
   sodipodi:docname="sticker-45mm.svg"
   x="0px"
   y="0px"
   width="54mm"
   height="54mm"
   viewBox="0 0 191.33857 191.33858"
   enable-background="new 0 0 153.07 153.07"
   xml:space="preserve"
   inkscape:export-filename="sticker-45mm.png"
   inkscape:export-xdpi="300"
   inkscape:export-ydpi="300"><metadata
   id="metadata19"><rdf:RDF><cc:Work
       rdf:about=""><dc:format>image/svg+xml</dc:format><dc:type
         rdf:resource="http://purl.org/dc/dcmitype/StillImage" /><dc:title /></cc:Work></rdf:RDF></metadata><defs
   id="defs17"><linearGradient
   gradientTransform="matrix(1.2755902,0,0,1.2755905,-1.8138916e-5,1.0977946e-5)"
   inkscape:collect="always"
   xlink:href="#linearGradient857"
   id="linearGradient1192"
   gradientUnits="userSpaceOnUse"
   x1="38.808804"
   y1="126.48148"
   x2="122.07177"
   y2="30.868048" /><linearGradient
   inkscape:collect="always"
   id="linearGradient857"><stop
     style="stop-color:#0082c9;stop-opacity:1;"
     offset="0"
     id="stop853" /><stop
     style="stop-color:#1cafff;stop-opacity:1"
     offset="1"
     id="stop855" /></linearGradient>
	
	
	
	
	
	
	
	
	
<clipPath
   clipPathUnits="userSpaceOnUse"
   id="clipPath8812"><circle
     id="circle8814"
     cx="95.669289"
     cy="95.669296"
     r="79.724197"
     style="fill:#00080d;fill-opacity:1;stroke-width:1" /></clipPath><linearGradient
   inkscape:collect="always"
   xlink:href="#linearGradient857"
   id="linearGradient8816"
   gradientUnits="userSpaceOnUse"
   gradientTransform="matrix(1.2755902,0,0,1.2755905,-1.8138916e-5,1.0977946e-5)"
   x1="38.808804"
   y1="126.48148"
   x2="122.07177"
   y2="30.868048" /></defs>
<sodipodi:namedview
   units="mm"
   inkscape:pageopacity="0"
   inkscape:pageshadow="2"
   inkscape:window-width="1920"
   inkscape:window-height="1046"
   inkscape:current-layer="Layer_1"
   fit-margin-right="0"
   fit-margin-bottom="0"
   inkscape:window-x="0"
   inkscape:window-y="34"
   inkscape:window-maximized="1"
   id="namedview16"
   bordercolor="#666666"
   pagecolor="#ffffff"
   borderopacity="1"
   objecttolerance="10"
   gridtolerance="10"
   guidetolerance="10"
   showgrid="false"
   inkscape:zoom="2.8284271"
   inkscape:cx="50.53755"
   inkscape:cy="120.3807"
   fit-margin-top="0"
   fit-margin-left="0">
	</sodipodi:namedview>
<rect
   inkscape:export-ydpi="95.955811"
   inkscape:export-xdpi="95.955811"
   inkscape:export-filename="sticker-mockup.png"
   style="opacity:1;fill:url(#linearGradient8816);fill-opacity:1;fill-rule:evenodd;stroke:none;stroke-width:0.09999999;stroke-miterlimit:4;stroke-dasharray:none;stroke-opacity:1"
   id="rect8798"
   width="191.33858"
   height="191.33858"
   x="-1.7763568e-15"
   y="3.1361496e-06"
   clip-path="url(#clipPath8812)" /><rect
   y="3.1361496e-06"
   x="-1.7763568e-15"
   height="191.33858"
   width="191.33858"
   id="rect1050"
   style="opacity:1;fill:url(#linearGradient1192);fill-opacity:1;fill-rule:evenodd;stroke:none;stroke-width:0.09999999;stroke-miterlimit:4;stroke-dasharray:none;stroke-opacity:1"
   inkscape:export-filename="sticker-45mm.png"
   inkscape:export-xdpi="300"
   inkscape:export-ydpi="300" />


<path
   inkscape:connector-curvature="0"
   id="path1052"
   d="m 95.75608,58.624532 c -11.80485,0 -21.810438,8.00291 -24.911502,18.845948 -2.695148,-5.751312 -8.535628,-9.780588 -15.262849,-9.780588 -9.251513,0 -16.856506,7.604991 -16.856506,16.856503 0,9.251502 7.604993,16.859965 16.856506,16.859965 6.727221,0 12.567701,-4.031743 15.26285,-9.784063 3.101064,10.843863 13.106651,18.849433 24.911501,18.849433 11.71755,0 21.67212,-7.88483 24.85249,-18.606382 2.74496,5.621732 8.51315,9.541012 15.14482,9.541012 9.25151,0 16.85996,-7.608463 16.85996,-16.859965 0,-9.251512 -7.60845,-16.856503 -16.85996,-16.856503 -6.63167,0 -12.39986,3.916824 -15.14482,9.537549 C 117.4282,66.506725 107.47363,58.624532 95.75608,58.624532 Z m 0,9.895164 c 8.91133,0 16.03018,7.1154 16.03018,16.026699 0,8.911287 -7.11885,16.030165 -16.030179,16.030165 -8.911277,0 -16.026676,-7.118878 -16.026676,-16.030165 0,-8.911299 7.115398,-16.026697 16.026675,-16.026699 z m -40.174352,9.06536 c 3.904238,0 6.964805,3.057079 6.964805,6.961339 0,3.904247 -3.060567,6.964801 -6.964805,6.964801 -3.904256,0 -6.961353,-3.060554 -6.961353,-6.964801 0,-3.90426 3.057097,-6.961339 6.961353,-6.961339 z m 80.171662,0 c 3.90427,0 6.96481,3.057079 6.96481,6.961339 0,3.904247 -3.06056,6.964801 -6.96481,6.964801 -3.90423,0 -6.96133,-3.060554 -6.96133,-6.964801 0,-3.90426 3.05712,-6.961339 6.96133,-6.961339 z"
   style="color:#000000;font-style:normal;font-variant:normal;font-weight:normal;font-stretch:normal;font-size:medium;line-height:normal;font-family:sans-serif;text-indent:0;text-align:start;text-decoration:none;text-decoration-line:none;text-decoration-style:solid;text-decoration-color:#000000;letter-spacing:normal;word-spacing:normal;text-transform:none;writing-mode:lr-tb;direction:ltr;baseline-shift:baseline;text-anchor:start;white-space:normal;clip-rule:nonzero;display:inline;overflow:visible;visibility:visible;opacity:1;isolation:auto;mix-blend-mode:normal;color-interpolation:sRGB;color-interpolation-filters:linearRGB;solid-color:#000000;solid-opacity:1;fill:#ffffff;fill-opacity:1;fill-rule:nonzero;stroke:none;stroke-width:5.56589985;stroke-linecap:butt;stroke-linejoin:miter;stroke-miterlimit:10;stroke-dasharray:none;stroke-dashoffset:0;stroke-opacity:1;color-rendering:auto;image-rendering:auto;shape-rendering:auto;text-rendering:auto;enable-background:accumulate"
   inkscape:export-filename="Nextcloud Hub logo variants.png"
   inkscape:export-xdpi="300"
   inkscape:export-ydpi="300" />
<path
   style="fill:#ffffff;fill-opacity:1;stroke-width:0.47038525"
   d="m 50.580447,118.29596 c -0.329282,0 -0.4715,0.18795 -0.4715,0.51728 v 13.64371 c 0,0.32929 0.142218,0.51499 0.4715,0.51499 h 0.377657 c 0.329293,0 0.514987,-0.1857 0.514987,-0.51499 v -11.3297 l 7.447858,11.55859 c 0.03242,0.0505 0.06768,0.0842 0.103,0.12125 0.0105,0.0125 0.01789,0.0256 0.02975,0.0366 0.03173,0.0289 0.06654,0.044 0.100714,0.0618 0.01906,0.01 0.03379,0.0247 0.05494,0.032 0.01476,0.005 0.03043,0.002 0.04578,0.006 0.05254,0.0135 0.1062,0.0275 0.169372,0.0275 h 0.375368 c 0.329293,0 0.471499,-0.18569 0.471499,-0.51499 v -13.64299 c 0,-0.32933 -0.142206,-0.51728 -0.471499,-0.51728 h -0.375368 c -0.329305,0 -0.517276,0.18795 -0.517276,0.51728 v 11.32971 l -7.447856,-11.55859 c -0.02545,-0.0394 -0.0561,-0.0634 -0.08469,-0.0939 -0.08601,-0.12162 -0.222218,-0.19456 -0.416568,-0.19456 z m 89.426923,0.18769 c -0.32929,0 -0.18769,0.18797 -0.18769,0.51728 v 4.65776 c 0,0.47041 0.0457,0.79879 0.0457,0.79879 h -0.0457 c 0,0 -0.89425,-2.06909 -3.38747,-2.06909 -2.72841,0 -4.65807,2.16388 -4.56392,5.36272 0,3.19886 1.74038,5.41081 4.51586,5.41081 2.68138,0 3.57516,-2.16524 3.57516,-2.16524 h 0.0481 c 0,0 -0.0939,0.28285 -0.0939,0.65918 v 0.7988 c 0,0.32929 0.18797,0.47151 0.51728,0.47151 h 0.32959 c 0.32929,0 0.4692,-0.18799 0.4692,-0.51728 v -13.40796 c 0,-0.32931 -0.51758,-0.51728 -0.84687,-0.51728 z m -36.55264,0.0481 c -0.32929,0 -0.13962,0.18799 -0.13962,0.51728 v 11.52427 c 0,2.258 1.50388,2.54058 2.35064,2.54058 0.37633,0 0.51727,-0.18797 0.51727,-0.51726 v -0.32959 c 0,-0.32929 -0.18823,-0.46922 -0.42343,-0.46922 -0.47044,-0.047 -1.08033,-0.18888 -1.08033,-1.50605 v -11.24273 c 0,-0.32929 -0.51758,-0.51728 -0.84687,-0.51728 z M 86.567739,119.754 c -0.329295,0 -0.517277,0.18799 -0.517277,0.51728 v 2.44677 1.17647 5.31464 c 0,2.44617 1.365208,3.81091 3.623219,3.81091 0.423372,0 0.563053,-0.13992 0.563053,-0.46921 v -0.28381 c 0,-0.37633 -0.139681,-0.47028 -0.563053,-0.51729 -0.799713,-0.047 -2.259075,-0.32915 -2.259075,-2.72828 v -5.17504 h 2.117169 c 0.329292,0 0.517276,-0.13991 0.517276,-0.46922 v -0.1419 c 0,-0.3293 -0.187984,-0.51727 -0.517276,-0.51727 h -2.117169 v -2.44677 c 0,-0.32929 -0.139919,-0.51728 -0.469212,-0.51728 z m -18.736373,2.63446 c -2.822509,0 -5.082307,2.02376 -5.12927,5.41079 0,3.19882 2.353071,5.4085 5.410797,5.4085 1.646454,0 2.868737,-0.70501 3.433246,-1.12839 0.235278,-0.18816 0.283036,-0.42396 0.141907,-0.65919 l -0.141907,-0.23346 c -0.141127,-0.28226 -0.37464,-0.33008 -0.656895,-0.1419 -0.47042,0.37632 -1.413402,0.9407 -2.730575,0.9407 -2.116873,0 -3.951624,-1.50613 -3.998587,-4.14049 h 7.479899 c 0.282268,0 0.517277,-0.23503 0.517277,-0.51729 0,-2.96362 -1.550408,-4.93927 -4.325892,-4.93927 z m 29.226084,0 c -3.057715,0 -5.409611,2.25773 -5.456573,5.45656 0,3.19885 2.35307,5.4108 5.410798,5.4108 1.88168,0 3.151545,-0.89501 3.668995,-1.31837 0.23528,-0.23522 0.28075,-0.42269 0.13962,-0.70496 l -0.13962,-0.18768 c -0.18815,-0.28226 -0.37693,-0.33007 -0.65918,-0.14192 -0.470424,0.42337 -1.457663,1.08262 -2.915974,1.08262 -2.258001,0 -4.046654,-1.69431 -4.046654,-4.14049 0,-2.49321 1.788653,-4.18627 4.046654,-4.18627 1.223096,0 2.115971,0.61142 2.586379,0.94072 0.282256,0.18809 0.516785,0.1884 0.704955,-0.0939 l 0.14191,-0.23575 c 0.2353,-0.28225 0.18715,-0.5168 -0.0481,-0.70495 -0.517459,-0.42339 -1.645641,-1.17647 -3.433248,-1.17647 z m 15.90051,0 c -3.01068,0 -5.45657,2.305 -5.45657,5.36271 0,3.10476 2.44589,5.45658 5.45657,5.45658 3.01069,0 5.45657,-2.35182 5.45657,-5.45658 0,-3.05771 -2.44588,-5.36271 -5.45657,-5.36271 z m -30.432297,0.15794 c -0.115188,0.0184 -0.226052,0.0959 -0.33188,0.222 l -1.904308,2.26823 -1.423653,1.6983 -2.158369,-2.57035 -1.169592,-1.39618 c -0.105889,-0.12613 -0.225813,-0.19527 -0.350191,-0.20599 -0.124363,-0.01 -0.253814,0.0361 -0.379947,0.1419 l -0.288392,0.24261 c -0.252243,0.21168 -0.239029,0.44585 -0.02746,0.69811 l 1.904309,2.26821 1.579292,1.88371 -2.311719,2.75346 c -0.0024,0.002 -0.0035,0.005 -0.0046,0.006 l -1.167304,1.38934 c -0.211668,0.25224 -0.188145,0.51846 0.06409,0.73014 l 0.288391,0.24033 c 0.252257,0.21165 0.481849,0.15842 0.693517,-0.0939 l 1.902019,-2.26824 1.425942,-1.69831 2.158367,2.57264 c 0.001,0.002 0.0035,0.004 0.0046,0.005 l 1.165017,1.39161 c 0.211667,0.25225 0.47787,0.27338 0.730136,0.0618 l 0.288392,-0.24033 c 0.252256,-0.21166 0.239154,-0.44584 0.02746,-0.6981 l -1.904305,-2.27051 -1.579295,-1.88143 2.31172,-2.75575 c 0.0024,-0.002 0.0035,-0.004 0.0046,-0.006 l 1.167303,-1.38931 c 0.211667,-0.25225 0.188146,-0.51847 -0.06409,-0.73014 l -0.288392,-0.24032 c -0.126122,-0.10588 -0.246427,-0.14657 -0.361634,-0.12817 z m 38.665217,0.0779 c -0.32929,0 -0.47149,0.18798 -0.47149,0.51728 v 6.06767 c 0,2.6814 1.97584,3.9986 4.42202,3.9986 2.44618,0 4.42203,-1.3172 4.42203,-3.9986 v -6.06768 c 0.047,-0.32929 -0.13993,-0.51728 -0.46922,-0.51728 h -0.37765 c -0.3293,0 -0.51728,0.18799 -0.51728,0.51728 v 5.69232 c 0,1.59942 -1.03508,3.05789 -3.05788,3.05789 -1.97576,0 -3.05788,-1.45847 -3.05788,-3.05789 v -5.69232 c 0,-0.32929 -0.18797,-0.51728 -0.51728,-0.51728 z m -53.407579,0.94071 c 1.505338,0 2.821821,1.08163 2.915971,3.24555 h -6.491126 c 0.329294,-2.1169 1.834603,-3.24555 3.575155,-3.24555 z m 45.174659,0.0939 c 2.21097,0 3.99859,1.74035 3.99859,4.09244 0,2.44617 -1.78762,4.23433 -3.99859,4.23433 -2.21096,0 -3.9997,-1.83518 -4.04665,-4.23433 0,-2.30505 1.83569,-4.09244 4.04665,-4.09244 z m 23.56809,0 c 2.21098,0 3.29363,2.02361 3.29363,4.14051 0,2.96362 -1.60113,4.18626 -3.34169,4.18626 -1.92871,0 -3.24438,-1.64601 -3.29133,-4.18626 0,-2.63435 1.50477,-4.14051 3.33939,-4.14051 z"
   id="path1174"
   inkscape:connector-curvature="0" /></svg>